<?xml version="1.0" encoding="UTF-8" standalone="no"?><!DOCTYPE svg PUBLIC "-//W3C//DTD SVG 1.1//EN" "http://www.w3.org/Graphics/SVG/1.1/DTD/svg11.dtd"><svg width="100%" height="100%" viewBox="0 0 1271 713" version="1.1" xmlns="http://www.w3.org/2000/svg" xmlns:xlink="http://www.w3.org/1999/xlink" xml:space="preserve" xmlns:serif="http://www.serif.com/" style="fill-rule:evenodd;clip-rule:evenodd;stroke-linejoin:round;stroke-miterlimit:2;"><rect x="0" y="0" width="1266.91" height="710.692" style="fill:none;"/><g><g><path d="M262.479,54.546l0,487.067c0,36.587 1.609,59.941 4.863,70.054c3.233,10.066 9.983,18.358 20.225,24.825c10.245,6.425 26.608,9.637 49.133,9.637l13.629,0l0,16.229l-313.542,0l0,-16.229l15.796,0c25.459,0 43.6,-2.908 54.429,-8.771c10.871,-5.9 18.184,-13.975 21.963,-24.216c3.817,-10.242 5.729,-34.071 5.729,-71.53l0,-308.766c0,-27.475 -1.346,-44.663 -3.996,-51.563c-2.604,-6.879 -7.508,-12.716 -14.666,-17.533c-7.184,-4.863 -15.454,-7.292 -24.829,-7.292c-14.93,0 -33.071,4.688 -54.425,14.063l-7.9,-15.8l219.095,-100.175l14.496,-0Z" style="fill:#efdbef;fill-rule:nonzero;"/><path d="M779.367,364.617c-0,59.441 -8.334,114.908 -25,166.408c-9.963,31.658 -23.354,57.592 -40.192,77.775c-16.842,20.204 -35.983,36.242 -57.379,48.092c-21.354,11.85 -44.617,17.795 -69.792,17.795c-28.712,0 -54.646,-7.337 -77.779,-21.962c-23.087,-14.629 -43.575,-35.592 -61.458,-62.846c-12.846,-19.904 -24.109,-46.379 -33.767,-79.429c-12.629,-44.792 -18.925,-91.058 -18.925,-138.8c-0,-64.696 9.071,-124.133 27.258,-178.3c14.93,-44.792 37.609,-79.104 68.055,-102.95c30.424,-23.896 62.633,-35.854 96.616,-35.854c34.55,-0 66.796,11.808 96.788,35.416c30.033,23.571 52.083,55.255 66.145,95.055c19.617,54.75 29.43,114.625 29.43,179.6Zm-135.246,-0.867c-0,-104.212 -0.583,-164.975 -1.733,-182.292c-2.955,-40.67 -9.984,-68.187 -21.096,-82.554c-7.359,-9.375 -19.229,-14.062 -35.592,-14.062c-12.629,-0 -22.567,3.537 -29.858,10.591c-10.829,10.242 -18.142,28.342 -21.963,54.255c-3.821,25.866 -5.729,116.274 -5.729,271.179c0,84.333 2.908,140.8 8.767,169.446c4.383,20.833 10.7,34.762 18.925,41.754c8.2,7.008 19.029,10.5 32.462,10.5c14.629,-0 25.629,-4.688 32.988,-14.063c12.262,-16.362 19.291,-41.687 21.096,-75.954l1.733,-188.8Z" style="fill:#efdbef;fill-rule:nonzero;"/><path d="M1172.38,364.617c0,59.441 -8.333,114.908 -25,166.408c-9.962,31.658 -23.354,57.592 -40.192,77.775c-16.841,20.204 -35.983,36.242 -57.379,48.092c-21.354,11.85 -44.616,17.795 -69.791,17.795c-28.713,0 -54.646,-7.337 -77.78,-21.962c-23.087,-14.629 -43.575,-35.592 -61.458,-62.846c-12.846,-19.904 -24.108,-46.379 -33.767,-79.429c-12.629,-44.792 -18.925,-91.058 -18.925,-138.8c0,-64.696 9.071,-124.133 27.259,-178.3c14.929,-44.792 37.608,-79.104 68.054,-102.95c30.425,-23.896 62.633,-35.854 96.617,-35.854c34.55,-0 66.795,11.808 96.787,35.416c30.033,23.571 52.083,55.255 66.146,95.055c19.617,54.75 29.429,114.625 29.429,179.6Zm-135.246,-0.867c0,-104.212 -0.583,-164.975 -1.733,-182.292c-2.954,-40.67 -9.983,-68.187 -21.096,-82.554c-7.358,-9.375 -19.229,-14.062 -35.592,-14.062c-12.629,-0 -22.566,3.537 -29.858,10.591c-10.829,10.242 -18.142,28.342 -21.962,54.255c-3.821,25.866 -5.73,116.274 -5.73,271.179c0,84.333 2.909,140.8 8.767,169.446c4.383,20.833 10.7,34.762 18.925,41.754c8.2,7.008 19.029,10.5 32.463,10.5c14.629,-0 25.629,-4.688 32.987,-14.063c12.263,-16.362 19.292,-41.687 21.096,-75.954l1.733,-188.8Z" style="fill:#efdbef;fill-rule:nonzero;"/></g><path d="M41.429,289.692l1180.53,-0l0,216.45l-1180.53,-0l0,-216.45" style="fill:#5b0052;fill-rule:nonzero;"/></g><g><g><path d="M157.213,406.596l-23.196,-0l11.608,-32.658l11.588,32.658Zm34.266,35.071l-37.216,-91.755l-17.146,0l-37.238,91.755l21.721,-0l6.621,-18.492l34.937,0l6.6,18.492l21.721,-0Z" style="fill:#efdbef;fill-rule:nonzero;"/><path d="M313.175,441.667l0,-91.755l-20.25,0l0,57.205l-31.55,-57.204l-20.25,-0l0,91.754l20.25,-0l0,-57.204l31.55,57.204l20.25,-0Z" style="fill:#efdbef;fill-rule:nonzero;"/><path d="M405.842,427.367c-9.984,-0 -18.621,-4.992 -19.163,-15.929l-20.487,-0c0.133,22.395 18.6,32.379 38.846,32.379c18.75,-0 38.041,-7.946 38.041,-29.538c0,-34.937 -53.016,-23.2 -53.016,-39.541c-0,-6.88 7.966,-9.567 13.629,-9.567c10.112,-0 15.646,3.1 16.733,12.671l19.554,-0c-0.675,-20.896 -17.666,-29.275 -36.566,-29.275c-16.734,-0 -34.267,8.921 -34.267,27.8c-0,33.854 53.037,22.395 53.037,40.212c0,8.225 -10.004,10.788 -16.341,10.788Z" style="fill:#efdbef;fill-rule:nonzero;"/></g><rect x="496.096" y="349.913" width="20.246" height="91.754" style="fill:#efdbef;"/><g><path d="M626.546,423.308l-32.9,0l-0,-18.47l31.554,-0l0,-18.359l-31.554,0l-0,-18.208l32.9,-0l-0,-18.358l-53.146,-0l0,91.754l53.146,-0l-0,-18.359Z" style="fill:#efdbef;fill-rule:nonzero;"/><path d="M703.583,423.046l0,-54.363l6.075,0c15.646,0 26.171,11.871 26.171,27.109c0,15.254 -10.654,27.254 -26.171,27.254l-6.075,-0Zm-19.966,-73.133l-0,91.754l27.258,-0c26.042,-0 45.592,-19.967 45.592,-45.875c-0,-25.892 -19.704,-45.879 -45.592,-45.879l-27.258,-0Z" style="fill:#efdbef;fill-rule:nonzero;"/><path d="M860.071,406.596l-23.2,-0l11.612,-32.658l11.588,32.658Zm34.267,35.071l-37.217,-91.755l-17.146,0l-37.242,91.755l21.725,-0l6.621,-18.492l34.938,0l6.596,18.492l21.724,-0Z" style="fill:#efdbef;fill-rule:nonzero;"/><path d="M963.946,423.046l-0,-54.363l6.079,0c15.646,0 26.171,11.871 26.171,27.109c-0,15.254 -10.654,27.254 -26.171,27.254l-6.079,-0Zm-19.963,-73.133l0,91.754l27.255,-0c26.041,-0 45.595,-19.967 45.595,-45.875c0,-25.892 -19.704,-45.879 -45.596,-45.879l-27.254,-0Z" style="fill:#efdbef;fill-rule:nonzero;"/><path d="M1123.67,423.308l-32.9,0l-0,-18.47l31.554,-0l-0,-18.359l-31.554,0l-0,-18.208l32.9,-0l-0,-18.358l-53.15,-0l-0,91.754l53.15,-0l-0,-18.359Z" style="fill:#efdbef;fill-rule:nonzero;"/></g></g></svg>