<?xml version="1.0" encoding="UTF-8" standalone="no"?><!DOCTYPE svg PUBLIC "-//W3C//DTD SVG 1.1//EN" "http://www.w3.org/Graphics/SVG/1.1/DTD/svg11.dtd"><svg width="100%" height="100%" viewBox="0 0 140 205" version="1.1" xmlns="http://www.w3.org/2000/svg" xmlns:xlink="http://www.w3.org/1999/xlink" xml:space="preserve" xmlns:serif="http://www.serif.com/" style="fill-rule:evenodd;clip-rule:evenodd;stroke-linejoin:round;stroke-miterlimit:2;"><g><path d="M0.018,6.262l-0,18.6c-0,4.989 2.35,9.689 6.35,12.673l79.961,59.816c3.25,2.433 3.25,7.317 -0,9.745l-79.961,59.811c-4,2.994 -6.356,7.694 -6.356,12.683l0,18.6c0,5.144 5.878,8.083 9.995,5l126.989,-94.983c3.994,-2.989 3.994,-8.978 -0,-11.961l-126.984,-94.984c-4.122,-3.094 -9.994,-0.144 -9.994,5" style="fill:#37143e;fill-rule:nonzero;"/><path d="M10,74.73l28.761,21.517c3.989,2.983 3.989,8.972 0,11.955l-28.755,21.506c-4.123,3.083 -9.995,0.144 -9.995,-5.011l-0.011,-44.956c0,-5.15 5.878,-8.094 10,-5.011" style="fill:#37143e;fill-rule:nonzero;"/></g></svg>