<?xml version="1.0" encoding="UTF-8" standalone="no"?><!DOCTYPE svg PUBLIC "-//W3C//DTD SVG 1.1//EN" "http://www.w3.org/Graphics/SVG/1.1/DTD/svg11.dtd"><svg width="100%" height="100%" viewBox="0 0 584 855" version="1.1" xmlns="http://www.w3.org/2000/svg" xmlns:xlink="http://www.w3.org/1999/xlink" xml:space="preserve" xmlns:serif="http://www.serif.com/" style="fill-rule:evenodd;clip-rule:evenodd;stroke-linejoin:round;stroke-miterlimit:2;"><g><path d="M0.075,26.092l0,77.5c0,20.787 9.792,40.371 26.458,52.804l333.171,249.233c13.542,10.138 13.542,30.488 0,40.604l-333.171,249.213c-16.666,12.475 -26.483,32.058 -26.483,52.846l-0,77.5c-0,21.433 24.492,33.679 41.646,20.833l529.121,-395.763c16.641,-12.454 16.641,-37.408 -0,-49.837l-529.1,-395.767c-17.175,-12.891 -41.642,-0.6 -41.642,20.834" style="fill:#d4a5d7;fill-rule:nonzero;"/><path d="M41.667,311.375l119.837,89.654c16.621,12.429 16.621,37.384 0,49.813l-119.812,89.608c-17.18,12.846 -41.646,0.6 -41.646,-20.879l-0.046,-187.317c-0,-21.458 24.492,-33.725 41.667,-20.879" style="fill:#d4a5d7;fill-rule:nonzero;"/></g></svg>