<?xml version="1.0" encoding="UTF-8" standalone="no"?><!DOCTYPE svg PUBLIC "-//W3C//DTD SVG 1.1//EN" "http://www.w3.org/Graphics/SVG/1.1/DTD/svg11.dtd"><svg width="100%" height="100%" viewBox="0 0 142 209" version="1.1" xmlns="http://www.w3.org/2000/svg" xmlns:xlink="http://www.w3.org/1999/xlink" xml:space="preserve" xmlns:serif="http://www.serif.com/" style="fill-rule:evenodd;clip-rule:evenodd;stroke-linejoin:round;stroke-miterlimit:2;"><g><path d="M0.017,6.263l-0,18.6c-0,4.987 2.35,9.687 6.35,12.67l79.962,59.817c3.25,2.433 3.25,7.317 0,9.746l-79.962,59.812c-4,2.992 -6.355,7.692 -6.355,12.684l0,18.6c0,5.141 5.88,8.083 9.996,5l126.988,-94.984c3.996,-2.991 3.996,-8.979 -0,-11.962l-126.984,-94.983c-4.12,-3.096 -9.995,-0.146 -9.995,5" style="fill:#441943;fill-rule:nonzero;"/><path d="M10,74.729l28.762,21.517c3.988,2.983 3.988,8.975 0,11.958l-28.758,21.504c-4.121,3.084 -9.992,0.146 -9.992,-5.012l-0.012,-44.954c-0,-5.15 5.879,-8.096 10,-5.013" style="fill:#441943;fill-rule:nonzero;"/></g></svg>